# xmcd
#
# Track frame offsets: 
#        150
#        13612
#        32592
#        45767
#        61433
#        80843
#        95974
#        117475
#        133943
#        155638
#        177628
#        188187
#
# Disc length: 2631 seconds
#
# Revision: 1
# Processed by: cddbd v1.5.2PL0 Copyright (c) Steve Scherf et al.
# Submitted via: ExactAudioCopy v0.99pb5
#
DISCID=aa0a450c
DTITLE=Various Artist - Kohls Christmas In The Country
DYEAR=2009
DGENRE=Country
TTITLE0=WinterWonderland-Brooks&Dunn
TTITLE1=DoYouHearWhatIHear-Carrie Underwood
TTITLE2=RudolphTheRedNosedRaindeer-AlanJackson
TTITLE3=SantaBaby-KelliePickler
TTITLE4=OLittleTownOfBethlehem-KennyChesney
TTITLE5=WhiteChristmas-MartinaMcBride
TTITLE6=AwayInAManger-BradPaisley
TTITLE7=PleaseComeHomeForChristmas-KeithAnderson
TTITLE8=OComeAllYeFaithful-SaraEvans
TTITLE9=OHolyNight-Lonestar
TTITLE10=TheFirstNoel-PattyLoveless
TTITLE11=SilentNight-JonnyCash
EXTD=YEAR: 2009
EXTT0=
EXTT1=
EXTT2=
EXTT3=
EXTT4=
EXTT5=
EXTT6=
EXTT7=
EXTT8=
EXTT9=
EXTT10=
EXTT11=
PLAYORDER=
